<svg width="460" height="60" viewBox="0 0 460 60" fill="none" xmlns="http://www.w3.org/2000/svg">
    <path d="M32.9838 55C32.7099 55 32.4721 54.905 32.2703 54.715C32.0829 54.5397 31.9676 54.2986 31.9243 53.9917C31.5928 51.5951 31.2324 49.5784 30.8432 47.9417C30.4685 46.3196 29.964 44.9825 29.3297 43.9303C28.6955 42.8781 27.8594 42.0379 26.8216 41.4095C25.7982 40.7811 24.4865 40.2769 22.8865 39.897C21.3009 39.5024 19.3405 39.1517 17.0054 38.8448C16.6883 38.8156 16.436 38.6987 16.2486 38.4941C16.0612 38.2895 15.9676 38.0411 15.9676 37.7488C15.9676 37.4711 16.0612 37.23 16.2486 37.0254C16.436 36.8208 16.6883 36.7039 17.0054 36.6747C19.3405 36.4117 21.3081 36.0975 22.9081 35.7321C24.5081 35.3668 25.827 34.8626 26.8649 34.2196C27.9027 33.5767 28.7387 32.7218 29.373 31.655C30.0072 30.5882 30.5117 29.2364 30.8865 27.5997C31.2757 25.9484 31.6216 23.9171 31.9243 21.5059C31.9676 21.2137 32.0829 20.9798 32.2703 20.8045C32.4721 20.6145 32.7099 20.5195 32.9838 20.5195C33.2721 20.5195 33.5099 20.6145 33.6973 20.8045C33.8847 20.9798 34.0072 21.2137 34.0649 21.5059C34.3676 23.9171 34.7063 25.9484 35.0811 27.5997C35.4703 29.2364 35.9748 30.5882 36.5946 31.655C37.2288 32.7218 38.0649 33.5767 39.1027 34.2196C40.1405 34.8626 41.4594 35.3668 43.0594 35.7321C44.6594 36.0975 46.6342 36.4117 48.9838 36.6747C49.2865 36.7039 49.5315 36.8208 49.7189 37.0254C49.9063 37.23 50 37.4711 50 37.7488C50 38.0411 49.9063 38.2895 49.7189 38.4941C49.5315 38.6987 49.2865 38.8156 48.9838 38.8448C46.6342 39.1079 44.6594 39.422 43.0594 39.7874C41.4594 40.1527 40.1405 40.6569 39.1027 41.2999C38.0649 41.9283 37.2288 42.7758 36.5946 43.8426C35.9748 44.9094 35.4703 46.2685 35.0811 47.9198C34.7063 49.5711 34.3676 51.5951 34.0649 53.9917C34.0072 54.2986 33.8847 54.5397 33.6973 54.715C33.5099 54.905 33.2721 55 32.9838 55ZM18.3243 30.7563C17.8919 30.7563 17.6468 30.5151 17.5892 30.0329C17.4162 28.5715 17.2288 27.4244 17.027 26.5914C16.8396 25.7584 16.5297 25.1374 16.0973 24.7282C15.6793 24.3044 15.045 23.9829 14.1946 23.7637C13.3585 23.5445 12.2054 23.3107 10.7351 23.0623C10.245 22.9892 9.99999 22.7408 9.99999 22.317C9.99999 21.9078 10.2162 21.6667 10.6486 21.5936C12.1333 21.3013 13.3009 21.0456 14.1513 20.8264C15.0018 20.5926 15.6432 20.2711 16.0757 19.8619C16.5081 19.4527 16.8252 18.8463 17.027 18.0425C17.2288 17.2242 17.4162 16.0843 17.5892 14.623C17.6468 14.1407 17.8919 13.8996 18.3243 13.8996C18.7567 13.8996 19.0018 14.1334 19.0594 14.6011C19.2468 16.077 19.4342 17.2388 19.6216 18.0864C19.8234 18.9339 20.1333 19.5769 20.5513 20.0153C20.9838 20.4391 21.6252 20.7533 22.4757 20.9579C23.3261 21.1625 24.5009 21.3744 26 21.5936C26.1874 21.6082 26.3387 21.6813 26.454 21.8128C26.5838 21.9443 26.6486 22.1124 26.6486 22.317C26.6486 22.7261 26.4324 22.9746 26 23.0623C24.5009 23.3545 23.3261 23.6176 22.4757 23.8514C21.6396 24.0706 21.0054 24.3921 20.573 24.8159C20.1549 25.225 19.845 25.8388 19.6432 26.6572C19.4414 27.4755 19.2468 28.6154 19.0594 30.0767C19.0306 30.2667 18.9513 30.4274 18.8216 30.559C18.6919 30.6905 18.5261 30.7563 18.3243 30.7563ZM28.7892 15.6751C28.5153 15.6751 28.3567 15.529 28.3135 15.2367C28.1405 14.3453 27.9892 13.6439 27.8594 13.1324C27.7441 12.6209 27.5567 12.2337 27.2973 11.9706C27.0522 11.693 26.6703 11.4738 26.1513 11.313C25.6324 11.1523 24.9045 10.9915 23.9676 10.8308C23.6793 10.7723 23.5351 10.6043 23.5351 10.3266C23.5351 10.0636 23.6793 9.90282 23.9676 9.84437C24.9045 9.66901 25.6324 9.50826 26.1513 9.36212C26.6703 9.20137 27.0522 8.98948 27.2973 8.72644C27.5567 8.44878 27.7441 8.05422 27.8594 7.54274C27.9892 7.03127 28.1405 6.32983 28.3135 5.4384C28.3567 5.14613 28.5153 5 28.7892 5C29.0486 5 29.2072 5.14613 29.2649 5.4384C29.4234 6.32983 29.5676 7.03127 29.6973 7.54274C29.827 8.05422 30.0144 8.44878 30.2594 8.72644C30.5189 8.98948 30.9081 9.20137 31.427 9.36212C31.9459 9.50826 32.6739 9.66901 33.6108 9.84437C33.8991 9.90282 34.0432 10.0636 34.0432 10.3266C34.0432 10.6043 33.8991 10.7723 33.6108 10.8308C32.6739 10.9915 31.9459 11.1523 31.427 11.313C30.9081 11.4738 30.5189 11.693 30.2594 11.9706C30.0144 12.2337 29.827 12.6209 29.6973 13.1324C29.5676 13.6439 29.4234 14.3453 29.2649 15.2367C29.2072 15.529 29.0486 15.6751 28.7892 15.6751Z" fill="#27272A"/>
    <path d="M60 48.3086V45.5193C62.4484 45.3808 64.3581 44.7873 65.7292 43.7389C67.1003 42.6706 68.0613 40.9199 68.6122 38.4867C69.1753 36.0534 69.4569 32.7201 69.4569 28.4866C69.4569 25.361 69.2855 22.7596 68.9427 20.6825C68.6122 18.5856 68.0552 16.9436 67.2717 15.7567C66.7576 15.0049 66.1516 14.4115 65.4538 13.9763C64.756 13.541 63.9541 13.2344 63.0482 13.0564C62.1423 12.8783 61.1263 12.7893 60 12.7893V10H97.9929V12.7893C96.3158 12.7893 94.8773 13.0069 93.6776 13.4421C92.4779 13.8576 91.4986 14.6291 90.7396 15.7567C89.9928 16.8843 89.4419 18.4768 89.0869 20.5341C88.7319 22.5717 88.5544 25.2226 88.5544 28.4866C88.5544 32.7596 88.8298 36.1128 89.3807 38.546C89.9438 40.9792 90.9109 42.7201 92.2821 43.7686C93.6531 44.7972 95.5568 45.3808 97.9929 45.5193V48.3086H60Z" fill="#27272A"/>
    <path d="M101.684 48.3086V45.5193C104.132 45.3808 106.042 44.7873 107.413 43.7389C108.784 42.6706 109.745 40.9199 110.296 38.4867C110.859 36.0534 111.141 32.7201 111.141 28.4866C111.141 25.361 110.969 22.7596 110.627 20.6825C110.296 18.5856 109.739 16.9436 108.956 15.7567C108.441 15.0049 107.835 14.4115 107.138 13.9763C106.44 13.541 105.638 13.2344 104.732 13.0564C103.826 12.8783 102.81 12.7893 101.684 12.7893V10H133.746L149.923 31.2463L149.96 28.4866C149.96 25.2226 149.783 22.5717 149.428 20.5341C149.073 18.4768 148.516 16.8843 147.757 15.7567C147.01 14.6291 146.037 13.8576 144.837 13.4421C143.637 13.0069 142.199 12.7893 140.522 12.7893V10H160.721V12.7893C159.607 12.7893 158.615 12.8783 157.746 13.0564C156.02 13.4125 154.753 14.3126 153.945 15.7567C153.504 16.548 153.161 17.5074 152.916 18.635C152.659 19.7824 152.476 21.1771 152.366 22.819C152.255 24.4411 152.2 26.3304 152.2 28.4866V48.3086H133.36L126.639 38.9614L113.785 21.1573C113.503 23.0564 113.363 25.4995 113.363 28.4866C113.363 32.7596 113.644 36.1128 114.207 38.546C114.771 40.9792 115.738 42.7201 117.109 43.7686C118.492 44.7972 120.39 45.3808 122.801 45.5193V48.3086H101.684Z" fill="#27272A"/>
    <path d="M211.843 50C210.95 50 210.117 49.9802 209.346 49.9407C208.575 49.9209 207.865 49.8912 207.216 49.8516C205.894 49.7527 204.749 49.5747 203.782 49.3175C202.827 49.0801 202.025 48.7339 201.376 48.2789C200.74 47.8239 200.207 47.2305 199.779 46.4985C199.363 45.7864 199.026 44.9159 198.769 43.8872C198.524 42.8586 198.322 41.6518 198.163 40.2671C197.93 38.1701 197.581 36.4886 197.116 35.2226C196.651 33.9565 195.978 33.0267 195.096 32.4332C194.227 31.82 193.058 31.4936 191.589 31.454C191.638 34.9159 191.809 37.6756 192.103 39.7329C192.397 41.7903 192.862 43.274 193.499 44.184C194.135 45.0742 194.986 45.5193 196.051 45.5193V48.3086H163.016V45.5193C165.465 45.3808 167.374 44.7873 168.745 43.7389C170.116 42.6706 171.077 40.9199 171.628 38.4867C172.191 36.0534 172.473 32.7201 172.473 28.4866C172.473 25.361 172.302 22.7596 171.959 20.6825C171.628 18.5856 171.071 16.9436 170.288 15.7567C169.774 15.0049 169.168 14.4115 168.47 13.9763C167.772 13.541 166.97 13.2344 166.064 13.0564C165.158 12.8783 164.142 12.7893 163.016 12.7893V10H195.886V12.7893C195.164 12.7893 194.478 13.2839 193.829 14.273C193.193 15.2621 192.666 16.8942 192.25 19.1691C191.846 21.4243 191.619 24.4708 191.57 28.3086C192.856 27.2206 194.154 26.093 195.463 24.9258C196.773 23.7587 198.04 22.542 199.265 21.276C200.415 20.0692 201.382 18.912 202.166 17.8042C202.949 16.6766 203.341 15.7369 203.341 14.9852C203.341 14.2928 203.06 13.7587 202.496 13.3828C201.909 12.9871 200.96 12.7893 199.65 12.7893V10H219.28V12.7893C218.607 12.7893 217.725 13.0168 216.636 13.4718C215.559 13.9466 214.359 14.5796 213.037 15.3709C211.727 16.1622 210.325 17.0821 208.832 18.1306C206.542 19.7132 204.253 21.4046 201.964 23.2047C199.675 25.0049 197.551 26.6865 195.592 28.2493C196.339 28.091 197.037 27.9426 197.685 27.8042C198.346 27.6657 198.959 27.5272 199.522 27.3887L202.643 26.6766C203.598 26.459 204.535 26.2908 205.453 26.1721C206.371 26.0534 207.369 25.9941 208.446 25.9941C209.854 25.9941 211.06 26.1424 212.064 26.4392C213.998 27.0524 215.406 28.1899 216.287 29.8516C216.715 30.7023 217.077 31.6419 217.37 32.6706C217.652 33.7389 217.885 34.906 218.068 36.1721C218.252 37.4184 218.435 38.7636 218.619 40.2077C218.803 41.6123 219.005 42.6904 219.225 43.4421C219.445 44.1939 219.807 44.7181 220.309 45.0148C220.823 45.2918 221.582 45.4501 222.586 45.4896V48.4867C221.998 48.7043 221.374 48.9021 220.712 49.0801C220.064 49.2582 219.323 49.4164 218.491 49.5549C217.646 49.6934 216.685 49.8022 215.608 49.8813C214.53 49.9604 213.275 50 211.843 50Z" fill="#27272A"/>
    <path d="M224.899 48.3086V45.5193C227.348 45.3808 229.257 44.7873 230.628 43.7389C232 42.6706 232.961 40.9199 233.511 38.4867C234.075 36.0534 234.356 32.7201 234.356 28.4866C234.356 25.361 234.185 22.7596 233.842 20.6825C233.511 18.5856 232.954 16.9436 232.171 15.7567C231.657 15.0049 231.051 14.4115 230.353 13.9763C229.655 13.541 228.853 13.2344 227.947 13.0564C227.042 12.8783 226.026 12.7893 224.899 12.7893V10H276.187C276.505 12.4926 276.738 15.2028 276.885 18.1306C277.044 21.0584 277.123 23.7092 277.123 26.0831H275.195C274.375 24.1048 273.175 22.3047 271.596 20.6825C270.017 19.0603 268.224 17.6756 266.216 16.5282C264.208 15.361 262.109 14.4708 259.917 13.8576C257.726 13.2443 255.571 12.9377 253.454 12.9377V27.9525C254.139 27.636 255.057 27.1019 256.208 26.3502C257.359 25.5984 258.614 24.7181 259.972 23.7092C261.319 22.7003 262.464 21.8101 263.406 21.0386C264.349 20.2671 264.967 19.7132 265.261 19.3769C265.469 20.8605 265.604 22.5915 265.665 24.5697C265.726 26.5282 265.757 28.2493 265.757 29.7329C265.757 31.1573 265.714 32.7992 265.628 34.6588C265.555 36.4985 265.432 38.0317 265.261 39.2582C264.943 38.9416 264.294 38.3877 263.315 37.5964C262.335 36.7854 261.197 35.8952 259.899 34.9258C258.663 34.0158 257.457 33.1652 256.282 32.3739C255.119 31.5826 254.176 31.0287 253.454 30.7122V45.3709C255.51 45.3709 257.775 45.0346 260.248 44.362C262.721 43.6696 265.157 42.7201 267.556 41.5134C269.087 40.7221 270.513 39.8417 271.835 38.8724C273.157 37.8833 274.289 36.8249 275.232 35.6973C276.175 34.5697 276.836 33.4125 277.215 32.2255H279.143C279.143 34.5994 279.064 37.2502 278.905 40.178C278.758 43.1058 278.525 45.816 278.207 48.3086H224.899Z" fill="#27272A"/>
    <path d="M329.146 50C327.371 50 325.859 49.9407 324.61 49.822C322.125 49.6241 320.374 49.0504 319.358 48.1009C318.832 47.6657 318.422 47.0722 318.128 46.3205C317.822 45.6083 317.595 44.7577 317.448 43.7686C317.314 42.7596 317.204 41.5925 317.118 40.2671C317.008 38.6647 316.842 37.3195 316.622 36.2315C316.402 35.1236 316.059 34.2137 315.594 33.5015C314.7 32.1761 313.017 31.3947 310.544 31.1573C310.581 33.8279 310.685 36.0831 310.856 37.9229C311.028 39.7428 311.285 41.2166 311.627 42.3442C311.982 43.4718 312.429 44.2829 312.968 44.7775C313.519 45.272 314.198 45.5193 315.006 45.5193V48.3086H281.971V45.5193C284.42 45.3808 286.329 44.7873 287.701 43.7389C289.072 42.6706 290.033 40.9199 290.583 38.4867C291.147 36.0534 291.428 32.7201 291.428 28.4866C291.428 25.361 291.257 22.7596 290.914 20.6825C290.583 18.5856 290.026 16.9436 289.243 15.7567C288.729 15.0049 288.123 14.4115 287.425 13.9763C286.727 13.541 285.925 13.2344 285.02 13.0564C284.114 12.8783 283.098 12.7893 281.971 12.7893V10H311.719C313.311 10 314.816 10.0099 316.237 10.0297C317.657 10.0495 318.997 10.0791 320.258 10.1187C322.768 10.1978 324.971 10.3561 326.869 10.5935C328.766 10.8111 330.382 11.1276 331.716 11.543C333.687 12.1563 335.12 13.0861 336.013 14.3323C336.919 15.5589 337.372 17.2305 337.372 19.3472C337.372 21.4243 336.846 23.1454 335.793 24.5104C334.74 25.8556 333.314 26.9139 331.514 27.6855C330.315 28.1998 328.962 28.6251 327.456 28.9614C325.975 29.2779 324.384 29.5054 322.682 29.6439C320.993 29.7824 319.23 29.8615 317.393 29.8813H325.198C326.85 29.8813 328.27 29.9703 329.458 30.1484C331.784 30.5242 333.528 31.3353 334.691 32.5816C335.267 33.1949 335.744 33.9367 336.124 34.8071C336.503 35.6578 336.815 36.6469 337.06 37.7745C337.305 38.8823 337.531 40.1187 337.74 41.4837C337.984 43.0663 338.352 44.1345 338.841 44.6884C339.331 45.2226 340.231 45.4896 341.541 45.4896V48.4867C340.157 48.7438 338.884 48.9614 337.721 49.1395C336.558 49.3373 335.469 49.4956 334.453 49.6142C333.449 49.7527 332.506 49.8516 331.625 49.911C330.755 49.9703 329.929 50 329.146 50ZM310.526 27.8932C312.105 27.7745 313.519 27.4975 314.767 27.0623C316.016 26.6073 317.002 25.8754 317.724 24.8665C318.446 23.8576 318.807 22.453 318.807 20.6528C318.807 19.2483 318.605 18.1009 318.201 17.2107C317.81 16.3205 317.253 15.6083 316.53 15.0742C315.796 14.5598 314.921 14.1939 313.904 13.9763C312.888 13.7587 311.762 13.6202 310.526 13.5608V27.8932Z" fill="#27272A"/>
    <path d="M352.393 49.6439C350.802 49.6439 349.369 49.2977 348.096 48.6053C346.835 47.913 345.838 46.9337 345.103 45.6677C344.381 44.3818 344.02 42.8882 344.02 41.1869C344.02 39.9209 344.228 38.7735 344.644 37.7448C345.072 36.6963 345.66 35.8061 346.407 35.0742C347.154 34.362 348.035 33.8081 349.051 33.4125C350.079 33.0168 351.193 32.819 352.393 32.819C353.593 32.819 354.707 33.0168 355.735 33.4125C356.764 33.8081 357.651 34.362 358.398 35.0742C359.145 35.8061 359.726 36.6963 360.142 37.7448C360.571 38.7735 360.785 39.9209 360.785 41.1869C360.785 42.8882 360.418 44.3818 359.683 45.6677C358.949 46.9337 357.951 47.913 356.69 48.6053C355.429 49.2977 353.997 49.6439 352.393 49.6439Z" fill="#27272A"/>
    <path d="M363.172 48.3086V45.5193C363.527 45.5193 364.011 45.3511 364.623 45.0148C365.235 44.6588 365.908 44.1147 366.643 43.3828C367.377 42.6311 368.142 41.6815 368.938 40.5341C369.734 39.367 370.499 37.9426 371.234 36.2611L382.655 10H401.184L411.191 35.6083C411.889 37.3887 412.648 38.912 413.468 40.178C414.289 41.4243 415.103 42.4431 415.911 43.2344C416.706 44.0257 417.453 44.6093 418.151 44.9852C418.861 45.3413 419.455 45.5193 419.932 45.5193V48.3086H384.657V45.5193C385.404 45.5193 386.114 45.3017 386.787 44.8665C387.473 44.4313 388.03 43.7784 388.458 42.908C388.886 42.0376 389.101 40.9594 389.101 39.6736C389.101 39.2384 389.039 38.6944 388.917 38.0415H374.282C374.172 38.5163 374.117 38.9713 374.117 39.4065C374.117 40.732 374.331 41.8497 374.759 42.7596C375.2 43.6696 375.757 44.362 376.43 44.8368C377.116 45.2918 377.832 45.5193 378.579 45.5193V48.3086H363.172ZM375.622 33.9169H387.815C387.558 33.1256 387.258 32.2156 386.915 31.1869C386.573 30.1385 386.169 28.9515 385.704 27.6261C385.238 26.3007 384.712 24.817 384.124 23.1751C383.549 21.5331 382.894 19.7033 382.16 17.6855C381.327 19.723 380.568 21.5727 379.882 23.2344C379.197 24.8961 378.585 26.3996 378.046 27.7448C377.52 29.0702 377.055 30.2374 376.651 31.2463C376.247 32.2552 375.904 33.1454 375.622 33.9169Z" fill="#27272A"/>
    <path d="M422.007 48.3086V45.5193C424.455 45.3808 426.365 44.7873 427.736 43.7389C429.107 42.6706 430.068 40.9199 430.619 38.4867C431.182 36.0534 431.464 32.7201 431.464 28.4866C431.464 25.361 431.293 22.7596 430.95 20.6825C430.619 18.5856 430.062 16.9436 429.279 15.7567C428.765 15.0049 428.159 14.4115 427.461 13.9763C426.763 13.541 425.961 13.2344 425.055 13.0564C424.149 12.8783 423.133 12.7893 422.007 12.7893V10H460V12.7893C458.323 12.7893 456.884 13.0069 455.685 13.4421C454.485 13.8576 453.506 14.6291 452.747 15.7567C452 16.8843 451.449 18.4768 451.094 20.5341C450.739 22.5717 450.561 25.2226 450.561 28.4866C450.561 32.7596 450.837 36.1128 451.388 38.546C451.951 40.9792 452.918 42.7201 454.289 43.7686C455.66 44.7972 457.564 45.3808 460 45.5193V48.3086H422.007Z" fill="#27272A"/>
</svg>
